<?xml version="1.0" encoding="UTF-8"?>
<svg version="1.1" id="Isabelle/Winter Outfit" xmlns="http://www.w3.org/2000/svg" xmlns:xlink="http://www.w3.org/1999/xlink" x="0px" y="0px" viewBox="0 0 1724.5 2956.1" style="enable-background:new 0 0 1724.5 2956.1;" xml:space="preserve">
<style type="text/css">
	.st0{fill:#FFF78F;}
	.st1{fill:#FFFCD5;}
	.st2{fill:#243721;}
	.st3{fill:#EBB03A;}
	.st4{fill:#FFC20E;}
	.st5{fill:#FFFFFF;}
	.st6{fill:#8A6D36;}
	.st7{fill:#5B4423;}
	.st8{fill:#C9252C;}
	.st9{fill:#FDB933;}
	.st10{fill:#A62B48;}
	.st11{fill:#B6AAA7;}
	.st12{fill:#CCC2C0;}
	.st13{fill:#231F20;}
	.st14{fill:#F3716D;}
	.st15{fill:#F8AA9E;}
	.st16{fill:#989189;}
	.st17{fill:#001E48;}
	.st18{fill:#D2C663;}
</style>
<g>
	<path class="st0" d="M959.7,2759.4c0,0-3.1,18.4-16.2,54.8c-13,36.2-33.5,56.5-58.1,78c-28.7,25-95,50.2-107.6,56.6   c-4.1,2.1-12.3,7.5-24.4,7.4c-25.9-0.3-50.1-14.2-62.6-34.5c-33-53.5-19-112.6-1.2-138.4c21.6-31.4,53.2-50.4,53.2-50.4   s-3.7-15.5-4.7-18.3L959.7,2759.4z"/>
	<path class="st0" d="M1162.6,2720.2c0,0-33.2,111.2-39.6,131.3c-9.6,30-17.2,80.1-60.6,93.9c-43.5,13.8-79.7-0.1-105.5-42.3   c-22.2-36.2-13.1-90.3-13.1-90.3v-56.8L1162.6,2720.2z"/>
	<path class="st0" d="M664.4,2424.9c0,0-115.9,40-198.3-50.6c-76.2-83.7-69.4-171.8-46.4-250.3c8.4-28.7,28.8-70.3,35.4-70.3   c4.8,0,51.2,36.9,58.9,43.2c29.9,24.3,51.4,42,71,51.8c14.7,7.4,101.6,37,121.5,51.4l36.3,104.2L664.4,2424.9z"/>
	<path class="st1" d="M662.9,2213.1c2.1,0,38.9,1.6,45.4,4.4l4.1-0.1l-6-17.2c-19.9-14.3-106.8-44-121.5-51.3   c-19.6-9.8-41.1-27.6-71-51.8c-7.8-6.3-54.1-43.2-58.9-43.2c-6.6,0-27,41.6-35.4,70.3c-23.1,78.5-29.8,166.5,46.4,250.2   c19.2,21.1,40.3,35.1,61.3,44.2c-5.4-3.1-13.5-9.8-18.8-24c-0.3-0.9,0.5-1.9,1.4-1.5c6.1,2.3,22.3,7.5,27.4-2.6   c4.8-9.5,5.5-35.1,10.3-60.7c3.2-17.4,10.2-45.5,13.4-56.2c0.7-2.4,2.5-4.2,4.8-4.9c9.1-2.7,33-9.9,47.1-14.1   c16.7-5,46.9-16.8,49.7-28C664,2221.2,660.8,2213.1,662.9,2213.1"/>
	<path class="st2" d="M1288,2387.5c0,0-8.8,68.8-13.5,96.3c-5.6,32.7-10,51.9-15.9,87.9c-6.5,39.7-10.4,69.9-15.8,84.9   c-29.8,51.5-116.8,95.3-283.1,102.8c-122.8,5.5-209.3-27.2-249.2-63.4c-19.9-18.1-19.6-30.8-25-63.1c-3-18.1-14.1-79.7-20.1-151.8   c-6.6-80.3,10.7-125.4,10.7-125.4L1288,2387.5z"/>
	<path class="st3" d="M1440.2,1631.4c0,0,12.1,14,44.8,14.9l-16.8-98.3l-30.6,83.4H1440.2z"/>
	<path class="st4" d="M1237.2,1827.5c-0.1-0.1-28.1-13.6-36.9-20.5c-9.1-7-34.7-22.7-34.7-22.7l-307.5-40.5l-332.9-110l-87.1,204.6   c3.7-0.9,128.7,30.6,172.1,67.9c27.3,23.5,27,30.7,37.9,47.6c1.3,2,11,18.1,17.3,44.8c18.4,77.8,40.5,182.6,44.8,231.2   c2.2,24.7-7.2,37.4-13.7,52.3c-5.2,12-16.8,38.3-21.3,57.4c-5.8,24.8,28.6,80.1,145.3,106.5c70.6,16,172.7,27.6,314.8,1.4   l92.6-28.1c0,0,26.6-7.2,49.2-22.6c12-8.2,18.9-19.1,24.1-33.2c0.1-0.2,0.2-19.6-0.1-25.4c-0.2-4.6-1.7-9.5-1.7-9.5   c1.5-17.2,13.6-86.3,8.3-149.4c-1.8-21.6-13.4-42.5-17.6-60.4c-3.2-13.6-6.1-27.2-9.2-41.9c87.7,24.3,126.2-15.4,146.8-46.7   c20.6-31.3,31.6-75.7,31.6-75.7L1237.2,1827.5z"/>
	<path class="st5" d="M1096.4,1747.7c37.9,17.5,140.8,88.8-6.9,103.1c-146.6,14.3-193-107-193-107L1096.4,1747.7"/>
	<path class="st6" d="M1301.1,2338.6c-0.2-4.7-1.7-9.5-1.7-9.5c-0.3,5.5-0.6,11.8-2.3,16.3c-6.8,17.8-18.7,23.6-33,31.7   c-14.3,8.1-33.3,13.7-33.3,13.7l-92.9,27.2c-99.3,20.9-190.5,22.8-290.3,6c-94.4-15.9-140.3-49.5-154.2-70.5   c-13.6-20.7-9.1-40.7-6.2-49.1c-4.7,11.5-9.5,24.7-12,35.5c-5.8,24.7,28.6,80.1,145.2,106.5c70.7,16,172.7,27.6,314.8,1.4   l92.6-28.1c0,0,26.7-7.2,49.2-22.6c12-8.2,18.9-19.1,24.1-33.2C1301.3,2363.8,1301.4,2344.4,1301.1,2338.6"/>
	<path class="st7" d="M1226.6,2140c-16.4-108.7-45.9-185.9-62.9-224.1h0c8.4-1.4,39-8.5,40.4-35.9c1.4-27.3-28.7-82-39.2-96.7   c-10.5-14.7-29.4-28-29.4-28l-46-2.9c28.1,4.8,48,25.5,54.4,44.9c0,0,11,23.1,4.7,36.4c-6.3,13.3-52.6,11.5-59.1,17l0.1,0   c-14.2-1.9-31.6-3.1-52.1-4.4c-44.6-3-62.2-14.7-90-42.7c-11-11-46.5-54.1-47-55.5l-42.4-4.3c0,0,12.6,19.7,19.8,40   c12.5,35.4,26.5,73.3,64,98.3c34.1,22.7,54.3,36.8,123.6,43.2c1.8,0.2,3.4,1.3,4.1,2.9c6.1,14.2,33.3,90.3,43.5,132.9   c11.2,47,21.7,97.9,28.6,173.4c7.5,82.3-3.7,173.3-6.2,212.9c-0.1,1.2,1,1.9,2.1,1.7l87.3-21.7c1.4-0.3,2.4-1.5,2.5-2.9   C1237.4,2327,1243.5,2252.4,1226.6,2140"/>
	<path class="st5" d="M1218.9,2203.6c-2.5,18.5-16.5,31.9-31.3,29.9c-14.8-2-24.8-18.6-22.3-37.1c2.5-18.5,16.5-31.9,31.3-29.9   C1211.4,2168.5,1221.4,2185.2,1218.9,2203.6"/>
	<path class="st5" d="M1168.4,1973.8c7.9,17.2,3.1,36.2-10.8,42.6c-13.8,6.3-31.4-2.4-39.3-19.6c-7.9-17.2-3.1-36.2,10.8-42.6   C1142.9,1947.9,1160.5,1956.6,1168.4,1973.8"/>
	<path class="st8" d="M1139.7,1763.4c-6.2-11.7-13.2-16.8-13.2-16.8l-65.1,1.1l-2.3,3.8l-34.9-1.4l-0.1-0.1H923.1   c-2.5,3.2-7.6,17.1,8.8,33.7c13.6,13.8,24,19.6,32.4,20.5c8.3,0.9,41,2,59.8-10.6l0.1-0.1c-0.9,3.2-1.7,6.5-2.2,10   c-1.7,12.6-0.5,23.9-0.3,25.9c0.5,4.3,1.9,6.3,4,7c2.6,0.9,15,3.1,17.9,2.9c3.2-0.2,6.4,2.1,6.6-4.8c0.3-8.6-2.9-26.5-2.7-40.9   c0-0.6,0.1-1.1,0.1-1.7c1.9,1.7,10.3-0.2,16.7-6.8l-0.1,0.1c0,0,10.3,5.3,17.2,17.3c6.6,11.5,9.5,25,9.5,30.2   c0,4.4,1.2,6.5,3.9,6.1c5.2-0.6,15.4-3.6,18.9-4.7c2.9-0.9,3.7-3.1,2.9-9.1c-0.5-3.7-4.4-17.9-12.9-30.5l0.2,0.1   c0,0,26.5,9.2,35.8,5C1147,1796.3,1145.1,1773.6,1139.7,1763.4 M978.3,1781.2c-10.1,0.7-12.6,1.2-21.4-3.9   c-14.3-8.3-16.3-10.7-9.4-16.6c5.2-4.4,36.3,3.4,48.5,4.1c9.1,0.5,17.5,1.7,24.6,3.1l6.6,5.8   C1018.1,1776.1,1001.3,1779.7,978.3,1781.2 M1123.7,1777.3c-4.6,1.4-42.9-3.5-44-3.5h-0.1c-7.7-4.2-8.6-3.1-8.7-3.1   c0.1-1.5,0.1-3-0.1-4.4l0.1-0.1c0,0,19.4-2.2,27.8-5.3c8.4-3.2,11.9-6.7,17.2-5.3c4.6,1.2,8.7,7.9,9.1,10.5   C1126.1,1773.2,1123.7,1777.3,1123.7,1777.3"/>
	<path class="st3" d="M286.5,1510.9c2.8,0,45.8-33.6,58.9-51.4c0,0,17.7,5.6,50.4-11.2l115.1-413.1L286.5,1510.9z"/>
	<path class="st9" d="M512.3,1033.7c0,0-29.5,83.4-55.3,141.3c-23.4,52.7-88.8,213-124.3,269.1c-21.1,33.3-132.2,226.1-279.3,146.7   c-52.2-28.2-72.9-93.7-31.3-177.5c24-48.3,62.7-90.4,79.9-112.1c85.9-108.4,149.6-243.7,176.6-293.3   c47.6-87.8,127-195.5,196.1-232.9c51.6-27.9,93.5-24.8,107.5-11.9L512.3,1033.7z"/>
	<path class="st9" d="M1503.6,919.2c15.3,18.4,101.9,163.7,153.9,294.9c35.3,89.2,65.8,226.2,66.9,306.8c0.6,45.5-7.9,85.8-22.1,119   c-47.6,111.2-207.8,97.7-234.4-45.2l-44.8-494.3L1503.6,919.2z"/>
	<path class="st0" d="M1423.1,1100.5c2.5,16.4,10.6,65.6,28.4,128c15.5,54.5,48.7,121,54.6,144.3c8.4,33,38.1,144.9-67,257.2   c-66.3,70.8-157.1,95.9-237.1,107.4c-54.2,7.8-128.3,15.7-185.3,15.8c-74.4,0.1-168.9-8.2-265.9-26.8   c-110.9-21.3-180.8-48.6-292.6-136.6c-65.4-85-65.8-158-61-220.5c4.9-63.8,46.9-164.6,46.9-164.6l68.2-171l552.4-156.8l355.9,197.2   L1423.1,1100.5z"/>
	<path class="st7" d="M329.3,1796.9c0,0,4.7,18.6,21.9,25.5c17.5,7,53.8,18.8,70.2,18.4c5.5-0.1,11.1-0.9,16.8-2.3   c33.3-8.2,69.4-38.7,86.4-96.5c18.4-62.4,10.4-92.5,0.7-108.1c-4.7-7.6-9.9-11.7-12.6-14.5c-5.7-5.7-46.9-26.1-56.5-29.2   c-30.1-9.8-45.2,1.6-45.2,1.6L329.3,1796.9z"/>
	<path class="st5" d="M462.9,1608.4c-17.5-12.6-31.3-18.1-51.9-16.5c-20.8,1.6-33.2,13-33.2,13l0,0.1c0,0-60.7,169.3-63.9,167   c0,0,3.8,15,15.4,25c12,10.3,25.5,20.7,53.6,17.9c28-2.8,62.8-23.7,84.3-79C485.9,1687.5,486.4,1625.3,462.9,1608.4"/>
	<path class="st9" d="M701.3,575.4l327.6,44.2l178.8-5.2c0,0,63.4-55.3,43.5-141.1c-19.2-82.2-131.7-99-131.7-99   c2.5-73.7-31.4-169.7-75-232.3C996.2,73,917.7,12.8,847.5,3C656.8-23.4,526.1,129.1,505.4,229.8c-24.6,119.5-2.5,195.5,53.4,266   C609.1,559.1,692.7,573,701.3,575.4"/>
	<path class="st0" d="M1062,572.4c0,0,6.8-30.9,31.5-84.9c8.8-19.8,17.4-51.6,21.6-85.5c0,0-1.3-33.2-6.9-33.2s-16.2,22.4-24.6,33.6   c-8.4,11.2-10.9,24.3-45.5,36.9c-30.6,11.1-100.5,1.2-167.4-13.5C803.9,411,719.6,352.9,700,351.9c-19.6-1-29.9,18.9-31.5,35.2   c-1.6,16.2,13.7,45.1,26.8,76.9c13.1,31.8-2.8,37.4-2.8,37.4c-46.4,16.7-135.3-9.1-136.5-9.5c1,1.3,1.9,2.6,3,3.9   c50.2,63.3,133.8,77.2,142.4,79.6l327.6,44.2l33.4-1L1062,572.4z"/>
	<path class="st0" d="M1193.2,611.5c6.5-4.7,28-34.3,21.5-36.2c-6.6-1.9-46.7,27.1-85,27.6c-32.1,0.4-43.9-8.9-46.7-8.9v20.5   L1193.2,611.5z"/>
	<path class="st10" d="M1087.4,613.6c-2-29.8-19.7-46.1-66.8-54c-47.1-7.9-118.5-3.4-136.6,0.1c-14.6,2.9-21.5,7.1-21.5,7.1v54.6   h224.9V613.6z"/>
	<path class="st11" d="M801.3,618.8c0,33.4-27.1,60.6-60.6,60.6c-33.4,0-60.6-27.1-60.6-60.6c0-33.4,27.1-60.6,60.6-60.6   C774.2,558.2,801.3,585.3,801.3,618.8"/>
	<path class="st12" d="M865.8,585.5c0,33.4-27.1,60.6-60.6,60.6c-33.4,0-60.6-27.1-60.6-60.6c0-33.4,27.1-60.6,60.6-60.6   C838.7,525,865.8,552.1,865.8,585.5"/>
	<path class="st0" d="M1439.5,1111.4c-11.7-1.3-30.1-27.5-30.1-27.5c-0.5,2.7-1.2,5.1-1.8,7.4c-2.8,10-14.5,9.8-14.5,9.8   c-52.3,3.7-160.1-34.1-227.7-87.8c-81.5-64.9-100.5-136.4-100.5-136.4l-0.3-0.1c-8,26.2-20.8,51.3-39.6,72.5   c-66.3,64.5-158.3,103.2-323.7,113c-63.6,3.8-60.7-6.5-61.2-11.2c-0.5-4.7,11.2-24.8,18.2-34.6c-25,18.8-79.1,40-96.7,43.9   c-27.6,6.1-33.2-11.3-32-24.8c-28,16.1-31.4-34.5-23.3-92.3c6.5-46.4,23.6-102.2,38.2-127.3c32.7-56.5,75.3-106.9,148.6-156.4   c73.3-49.5,115.1-67.3,199.2-69.6c85.7-2.4,128.6,28.5,136.5,29.4c19.4,2.3,52.1-5.4,82.1-9.8c36.6-5.4,136.8-10.4,252.2,84.3   c112,91.8,154,178.7,140.1,313C1497.7,1061.5,1452.1,1112.9,1439.5,1111.4"/>
	<path class="st9" d="M536.4,1311.1c0,15.5,19.9,34.1,58.4,28c35-5.5,72.5-28,67.7-46.2c-4.9-18.9-48.4-24.8-77.1-21.3   C556.8,1275.2,536.4,1288.7,536.4,1311.1"/>
	<path class="st13" d="M877,1079.9c-0.9-18.7-13.3-30-30.4-36.5c-17.1-6.5-62.9,3.8-81.7,13.4c-15.1,7.7-51.6,34.8-60.9,47.7   c-6.1,8.4-11.7,33.3-1.9,32.6c9.8-0.8,47.7-21.4,47.7-21.4c-3.3,6.7-11.3,57,7.8,93.2c7.2,13.6,15.9,23,31.8,24.8   c21.3,2.3,38.1-7.4,50-21c14.4-16.4,22.2-38.3,24.1-58.6c4.6-50.9-14-63.6-13.6-63.3C872.3,1098.1,877.9,1098.6,877,1079.9"/>
	<path class="st13" d="M1348.7,1135.7c-10.4-19.7-32.7-43.3-40.9-49.5c-26.3-19.9-56.8-22.2-56.8-22.2c-5.6,0-17.3,5.7-23.9,14.5   c-4.1,5.4-7.7,13.8-7.9,25.9c0,0-0.5,6.9,3.3,10.2c2.7,2.3,11.1,0.7,18.7-3.3c0,0-7.6,8.7-10.8,23.1c-2.6,11.5-2.5,26.4,0,42.5   c2.1,13.4,5.2,32.5,13.3,45.8c13.8,22.4,32.1,39.1,56.6,36c28.8-3.7,23.5-103.7,17.9-111.6c4.9,3,29.3,27.3,35.6,24   C1358.3,1168.7,1355.3,1148.1,1348.7,1135.7"/>
	<path class="st1" d="M1018.5,1250.2c22.9-3,82.1,1.8,100.9,9.5c16,6.5,42.1,16.4,66.2,31.1c25.2,15.3,49.1,31.6,61,38.3   c37.9,21.3,101.7,68,122,98.8c21.7,32.9,51.7,139.5-17,216.6c-57.6,64.7-130.9,48.8-155.1,26.3c-1.3-1.2-3.1-1-4.1,0.4   c-17.5,26.7-50.3,59.6-159.3,59.6c-132.5,0-173.1-23-170.3-75.3c0.1-1.5-1.4-2.6-2.9-2c-72.5,29.5-125.8,14.4-152.6-4   c-8.5-5.8-44-33.7-35.1-99.2c8.6-63.5,49-130.2,62.6-143.7c30.3-30.1,75.1-56.7,129.4-80.6c45.5-20,71.5-37.3,82.7-45   C961.9,1270.8,999.6,1252.6,1018.5,1250.2"/>
	<path class="st9" d="M1415.3,1314.5c14.1-7.6,34.3-4.7,45.3,3.6c21.2,16.1,27.3,51.2,16.8,58.9c-10.5,7.7-33.6-4.9-49-20.3   C1406,1334.3,1406.7,1319.2,1415.3,1314.5"/>
	<path class="st14" d="M1199.6,1519.2c-5.6,8.2-12,19.8-22.1,34.3c-9.3,13.5-21.1,26.8-24.5,30.8c-29,34.9-59.6,52.3-116.3,49.4   c-53.9-2.7-71.7-26.1-85.5-56c-2.1-4.6-12.2-28.5-21-53.6c-8.9-25.2-16.8-48.4-21-56.1c0,0,21.8,11.4,56.7,23.5   c25.8,8.9,58.7,19,95.6,21c31.5,1.8,64.1-2.9,89.7-8.7c39.4-9,66.7-19.9,71.8-22.1C1223.1,1481.7,1206.6,1509.1,1199.6,1519.2"/>
	<path class="st5" d="M807.6,1170.9c-8.6-0.4-14.9-15.9-14.1-34.7c0.9-18.7,8.6-33.6,17.2-33.2c8.6,0.4,14.9,15.9,14.1,34.6   C823.9,1156.5,816.2,1171.3,807.6,1170.9"/>
	<path class="st5" d="M1275.3,1194.7c-6.4,0.3-12.5-14.2-13.5-32.5c-1-18.3,3.4-33.5,9.8-33.8c6.4-0.3,12.5,14.2,13.5,32.5   C1286.1,1179.2,1281.7,1194.3,1275.3,1194.7"/>
	<path class="st5" d="M1114,1506.1c2.3,14.2-1.9,20-9.1,26.5c-3.1,2.8-16.3,14-44.3,14c-34,0-44.5-18.6-45.9-25.2   c-1.4-6.7,0.3-20.2,0-21.3L1114,1506.1z"/>
	<path class="st15" d="M1154.6,1587.6c-3-8.1-17.9-26.9-103.9-29.1c-84.4-2.1-104.2,20.9-104.2,20.9s10.3,62.3,95.1,62.3   C1126.3,1641.6,1154.6,1587.6,1154.6,1587.6"/>
	<path class="st16" d="M1199.6,1519.2c-5.6,8.2-12,19.8-22.1,34.3c-9.3,13.5-21.1,26.8-24.5,30.8c-29,34.9-59.6,52.3-116.3,49.4   c-53.9-2.7-71.7-26.1-85.5-56c-2.1-4.6-12.2-28.5-21-53.6c-8.9-25.2-16.8-48.3-21-56.1c0,0,21.8,11.4,56.7,23.5   c25.8,8.9,58.7,19,95.6,21c31.5,1.8,64.1-2.9,89.7-8.7c39.4-9,66.7-20,71.8-22.1C1223.1,1481.7,1206.6,1509.1,1199.6,1519.2    M1274,1400.6c-3.8-1.6-7.4-1.7-7.4-1.7s2.1,21-6.4,33.5c-12.3,18.1-42.6,32.5-98.4,47.3c-28.1,7.4-61.9,17-96.7,14.7   c-50.2-3.3-79.1-19.2-109.7-30.8c-48-18.1-70.3-37-75-42.6c-7.4-8.5-9.3-18.3-9.8-25.6c-0.6-8.3,1.1-13,1.1-13   c-10.8-4.2-21.8,9.8-21.8,22.4c0.1,21.1,21.5,39.6,33.4,48.2c10.2,7.4,16.1,29.3,16.1,29.3c7.1,20.1,14.5,48,23.8,71.9   c11.9,30.5,25.3,55.7,29,63.1c6.5,13.1,35.9,33.7,76.6,36.1c40.6,2.3,77.9-4.7,111.2-34c34.1-30,70.4-92.6,84.4-116   c14-23.3,22.8-34.5,22.8-34.5c16.9-10.4,23.7-18.3,31-29.7C1284.6,1429.2,1281.9,1403.9,1274,1400.6"/>
	<path class="st17" d="M1008,1302c1.3-6.4,7.2-13.6,24.8-16.4c11.2-1.8,68.3,0.9,75.6,2c27.2,4,38.6,12.4,39,21.3   c0.6,14.1-3.4,41.4-67.3,38.1c-17.8-1-32.8-2.7-43.1-7C1016.6,1331.2,1005.9,1312.5,1008,1302"/>
	<path class="st0" d="M321.2,1777.1c-11.7-8.8-80.7-49.7-44.1-123.3c36.2-72.8,132.2-46,147.3-37.8c13.4,7.2,40.3,37.3,5.6,117   c-14.5,33.2-44.5,59.7-74.2,58.6C338.1,1790.9,325.7,1780.5,321.2,1777.1"/>
	<path class="st7" d="M1244.6,1942.3c5.4,9.9,43.7,42.7,93.7,47.9c57.2,6,93.7-4.8,120.9-35.2c16-17.9,20.2-68.9,21.8-79.4   c1.6-10.5,1.4-36-24.3-54.2l-193.9-19.7c0,0-40.2,26.1-37,73.9C1226.5,1886.1,1244.6,1942.3,1244.6,1942.3"/>
	<path class="st5" d="M1432.2,1800.1L1432.2,1800.1c0,0-142.4-15.8-142.4-15.8s-28,10.7-41.8,36.2c-13.8,25.5-14.3,65.6,10.5,87.1   c24.8,21.5,61.9,38.7,110.9,38.7c49,0,90.2-26.1,97.9-64C1475.3,1843.2,1463.8,1820.5,1432.2,1800.1"/>
	<path class="st0" d="M1354.5,1747.7c38.8,0,60.7,21.7,70.7,39.5c10.1,17.7,22.7,43.9,22.7,73.6s-32.5,55.2-82.7,55.2   c-50.2,0-104.4-28.4-104.4-60.6c0-32.3,28.7-71.5,35.7-80.1C1303.6,1766.6,1324.4,1747.7,1354.5,1747.7"/>
	<path class="st7" d="M1299.2,2116.7c-3.5-5.6-10.1-5.2-11-5.1c0.6,2.5,1.1,5,1.7,7.5c-2.8,1.2-7,2.3-13.8,2.8   c0,0,8.9,36.9,11.6,45.9c3.4,11.6,9.6,22.1,19.9,12C1313.3,2167.1,1303,2122.7,1299.2,2116.7"/>
	<path class="st18" d="M1393.1,1101.2c0,0,11.7,0.2,14.5-9.8c0.6-2.3,1.2-4.8,1.8-7.4c0,0,18.4,26.2,30,27.5   c6.7,0.8,22.9-13.6,37.4-35.5c-11.1,18.3-30.7,7-33.5-49.1c-1.8-35.6-15.4-87.7-21.8-95.2c-1.2-1.4-3.5-1.6-4.7-0.2   c-22.2,24.7-24,106.3-24.5,131c-0.1,4.9-4.6,8.5-9.4,7.7c-213.4-38.6-308.5-269.4-308.5-269.4c-152.7,206-316.9,227.7-372.5,227.5   c-6.2,0-9.8-6.8-6.6-12.1c31.9-51.7,28.7-99.1,26.3-115.4c-0.4-2.6-3.6-3.5-5.4-1.6C626.6,992.5,556,1004.7,556,1004.7   c-0.9-56.8-5.2-85.4-8.4-99c-0.8-3.2-5.4-3.2-6.2,0.1c-26.1,106.2-37.9,95-38.7,84.1c-0.3,34.8,7.1,57.4,27.1,45.9   c-1.2,13.4,4.4,30.8,32,24.8c17.5-3.9,71.7-25.2,96.7-43.9c-7,9.8-18.7,29.9-18.2,34.6c0.4,4.7-2.4,15,61.2,11.2   c165.4-9.8,257.4-48.6,323.7-113c18.8-21.2,31.7-46.3,39.6-72.5l0.3,0.1c0,0,19,71.6,100.5,136.4   C1233,1067.1,1340.8,1104.9,1393.1,1101.2"/>
	<path class="st7" d="M785,2186.7c1-4.2,4-3.7,8.2-3.7c2.4,0,69.2-1.5,87-1.9c19.6-0.5,83-6.1,90.6-7c7.9-0.9,14-2.4,19.6-1.9   c2.3,0.3,4.2,3.5,6.1,7.9c3.1,7.3,9.8,34.6,2.8,53.3c-7.3,19.6-36.8,22.9-98.9,26.2c-44.8,2.3-74.1,2.3-92.6-6.5   C790.2,2244.6,784.1,2190.4,785,2186.7"/>
</g>
</svg>